<?xml version="1.0" standalone="no"?>
<!DOCTYPE svg PUBLIC "-//W3C//DTD SVG 20010904//EN"
 "http://www.w3.org/TR/2001/REC-SVG-20010904/DTD/svg10.dtd">
<svg version="1.0" xmlns="http://www.w3.org/2000/svg"
 width="279.000000pt" height="279.000000pt" viewBox="0 0 279.000000 279.000000"
 preserveAspectRatio="xMidYMid meet">
<metadata>
Created by potrace 1.14, written by Peter Selinger 2001-2017
</metadata>
<g transform="translate(0.000000,279.000000) scale(0.100000,-0.100000)"
fill="#000000" stroke="none">
<path d="M180 2781 c-71 -15 -130 -61 -164 -128 -14 -28 -16 -99 -16 -618 l0
-585 215 0 c232 0 267 -6 299 -51 11 -16 16 -44 16 -86 l0 -62 -53 -34 c-69
-45 -110 -93 -136 -162 -57 -151 11 -320 157 -392 49 -24 69 -28 137 -27 128
1 215 53 275 166 31 57 34 70 34 143 -1 119 -46 201 -148 269 l-56 37 0 110
c0 118 8 145 55 189 26 24 31 25 213 30 l187 5 3 102 3 102 -64 -30 c-35 -16
-92 -34 -127 -41 -175 -30 -369 70 -449 234 -66 133 -65 256 3 394 110 222
389 300 609 170 43 -25 137 -119 137 -137 0 -5 5 -9 10 -9 6 0 10 77 10 210
l0 209 -557 0 c-307 -1 -574 -4 -593 -8z"/>
<path d="M1450 2561 c0 -124 -4 -231 -10 -246 -19 -50 -48 -64 -127 -65 l-72
0 -17 35 c-23 50 -85 110 -143 139 -140 71 -304 25 -395 -112 -50 -75 -63
-147 -42 -231 19 -78 49 -126 108 -173 85 -68 193 -88 295 -54 61 20 133 81
169 142 31 52 56 59 180 51 96 -6 138 -25 169 -77 18 -31 20 -56 23 -207 l4
-173 76 -1 c42 0 85 -2 95 -4 11 -2 17 1 14 8 -3 7 -18 41 -33 77 -25 57 -28
78 -28 165 0 152 44 246 161 341 81 66 148 88 273 88 98 1 110 -1 170 -30 83
-40 135 -82 181 -147 55 -78 79 -154 79 -246 0 -155 -62 -280 -185 -369 l-30
-21 208 -1 207 0 0 581 c0 647 3 620 -69 687 -67 64 -46 62 -682 62 l-579 0 0
-219z"/>
<path d="M2075 2141 c-92 -24 -166 -84 -212 -173 -23 -45 -27 -65 -27 -133 1
-119 49 -207 149 -271 l55 -35 0 -112 c0 -93 -3 -117 -20 -144 -38 -62 -55
-67 -255 -73 l-180 -5 -3 -103 c-1 -57 1 -102 5 -100 141 71 215 87 314 69
236 -41 400 -265 361 -493 -39 -226 -233 -381 -457 -365 -123 8 -242 71 -310
164 -16 23 -33 42 -37 42 -5 1 -8 -91 -8 -204 l0 -205 585 0 c557 0 588 1 623
19 44 23 82 62 108 111 18 33 19 72 22 618 l3 582 -223 0 c-192 0 -228 2 -258
18 -45 22 -60 53 -60 124 0 57 0 58 43 84 106 66 157 146 165 259 11 174 -119
321 -290 331 -35 2 -76 0 -93 -5z"/>
<path d="M0 749 c0 -581 0 -582 22 -626 23 -46 70 -89 121 -111 21 -9 177 -12
607 -12 l580 0 0 220 c0 147 4 228 12 247 21 50 46 63 123 63 l70 0 20 -35
c65 -123 211 -195 336 -167 87 20 151 63 197 132 56 83 70 151 48 239 -9 36
-27 82 -40 102 -31 45 -100 104 -150 124 -51 21 -151 22 -214 1 -60 -20 -144
-91 -172 -147 -17 -33 -25 -39 -66 -45 -65 -9 -186 1 -222 20 -16 8 -41 32
-54 53 -21 35 -23 50 -26 211 l-4 172 -93 0 -93 0 31 -72 c28 -66 31 -83 31
-173 0 -87 -4 -109 -28 -169 -95 -228 -370 -331 -590 -222 -75 37 -142 95
-184 161 -63 98 -79 247 -42 368 23 74 90 171 145 208 19 13 35 27 35 32 0 4
-90 7 -200 7 l-200 0 0 -581z"/>
</g>
</svg>
